<svg width="880" height="542" viewBox="0 0 880 542" fill="none" xmlns="http://www.w3.org/2000/svg">
<path fill-rule="evenodd" clip-rule="evenodd" d="M477.204 476.869C522.596 495.296 596.918 484.407 668.255 444.582C692.413 431.095 713.925 415.576 732.129 399.071C743.696 426.632 770.937 445.99 802.7 445.99C844.95 445.99 879.2 411.74 879.2 369.49C879.2 327.24 844.95 292.99 802.7 292.99C800.704 292.99 798.726 293.066 796.768 293.216C798.276 278.684 795.97 265.116 789.362 253.28C764.642 209.006 687.676 203.246 606.2 235.433C606.199 234.207 606.169 232.988 606.112 231.776C606.758 218.919 604.293 206.902 598.362 196.28C591.091 183.257 579.299 173.566 564.201 167.193C554.266 162.164 543.084 159.239 531.243 159.005C503.63 155.921 470.603 159.937 435.981 171.006C426.648 151.136 409.019 135.935 387.556 129.867C388.636 123.737 389.2 117.429 389.2 110.99C389.2 57.7891 350.733 13.5729 300.096 4.63726C254.646 -4.06832 191.201 8.79514 129.957 42.9863C33.9935 96.5598 -20.228 182.208 8.84941 234.287C21.4665 256.885 47.6941 269.449 81.1851 272.056C78.6007 279.729 77.2 287.946 77.2 296.49C77.2 317.567 85.724 336.653 99.5129 350.49C85.724 364.326 77.2 383.412 77.2 404.49C77.2 446.74 111.45 480.99 153.7 480.99C160.53 480.99 167.151 480.095 173.452 478.415C175.917 502.334 196.13 520.99 220.7 520.99C240.275 520.99 257.084 509.149 264.356 492.24C269.622 493.386 275.09 493.99 280.7 493.99C297.889 493.99 313.754 488.321 326.527 478.75C333.208 514.185 364.324 540.99 401.7 540.99C439.735 540.99 471.287 513.232 477.204 476.869Z" fill="#0C0B0B"/>
<path d="M668.255 444.582L668.012 444.145L668.012 444.145L668.255 444.582ZM477.204 476.869L477.392 476.405L476.811 476.17L476.71 476.788L477.204 476.869ZM732.129 399.071L732.59 398.878L732.317 398.226L731.793 398.701L732.129 399.071ZM796.768 293.216L796.271 293.165L796.209 293.761L796.807 293.715L796.768 293.216ZM789.362 253.28L789.799 253.037L789.799 253.037L789.362 253.28ZM606.2 235.433L605.7 235.433L605.701 236.167L606.384 235.898L606.2 235.433ZM606.112 231.776L605.612 231.751L605.611 231.775L605.612 231.8L606.112 231.776ZM598.362 196.28L598.799 196.037L598.799 196.037L598.362 196.28ZM564.201 167.193L563.976 167.639L563.991 167.647L564.007 167.654L564.201 167.193ZM531.243 159.005L531.188 159.502L531.21 159.504L531.233 159.505L531.243 159.005ZM435.981 171.006L435.528 171.218L435.715 171.616L436.133 171.482L435.981 171.006ZM387.556 129.867L387.063 129.78L386.985 130.225L387.42 130.348L387.556 129.867ZM300.096 4.63726L300.002 5.12839L300.009 5.12966L300.096 4.63726ZM129.957 42.9863L129.713 42.5497L129.957 42.9863ZM8.84941 234.287L9.28597 234.044L9.28597 234.044L8.84941 234.287ZM81.1851 272.056L81.6589 272.216L81.8638 271.607L81.2239 271.557L81.1851 272.056ZM99.5129 350.49L99.867 350.843L100.219 350.49L99.867 350.137L99.5129 350.49ZM173.452 478.415L173.95 478.364L173.89 477.781L173.324 477.932L173.452 478.415ZM264.356 492.24L264.462 491.751L264.059 491.664L263.897 492.042L264.356 492.24ZM326.527 478.75L327.018 478.658L326.869 477.869L326.227 478.35L326.527 478.75ZM668.012 444.145C632.389 464.032 596.029 476.69 562.92 482.077C529.804 487.465 499.976 485.574 477.392 476.405L477.016 477.332C499.824 486.592 529.853 488.47 563.081 483.064C596.315 477.656 632.785 464.956 668.499 445.018L668.012 444.145ZM731.793 398.701C713.619 415.179 692.137 430.676 668.012 444.145L668.499 445.018C692.688 431.514 714.232 415.973 732.465 399.442L731.793 398.701ZM802.7 445.49C771.146 445.49 744.082 426.26 732.59 398.878L731.668 399.265C743.31 427.005 770.729 446.49 802.7 446.49V445.49ZM878.7 369.49C878.7 411.463 844.674 445.49 802.7 445.49V446.49C845.226 446.49 879.7 412.016 879.7 369.49H878.7ZM802.7 293.49C844.674 293.49 878.7 327.516 878.7 369.49H879.7C879.7 326.964 845.226 292.49 802.7 292.49V293.49ZM796.807 293.715C798.751 293.566 800.717 293.49 802.7 293.49V292.49C800.691 292.49 798.7 292.567 796.73 292.718L796.807 293.715ZM788.926 253.524C795.476 265.256 797.77 278.718 796.271 293.165L797.266 293.268C798.783 278.65 796.465 264.975 789.799 253.037L788.926 253.524ZM606.384 235.898C647.068 219.826 686.599 213.239 719.02 216.182C751.448 219.124 776.678 231.587 788.926 253.524L789.799 253.037C777.327 230.699 751.714 218.144 719.11 215.186C686.498 212.226 646.808 218.853 606.016 234.967L606.384 235.898ZM605.612 231.8C605.67 233.004 605.699 234.215 605.7 235.433L606.7 235.432C606.699 234.199 606.669 232.972 606.611 231.752L605.612 231.8ZM597.926 196.524C603.804 207.053 606.255 218.975 605.612 231.751L606.611 231.801C607.262 218.863 604.781 206.75 598.799 196.037L597.926 196.524ZM564.007 167.654C579.022 173.992 590.719 183.615 597.926 196.524L598.799 196.037C591.464 182.899 579.576 173.14 564.396 166.732L564.007 167.654ZM531.233 159.505C542.998 159.738 554.105 162.643 563.976 167.639L564.427 166.747C554.426 161.685 543.171 158.741 531.253 158.505L531.233 159.505ZM436.133 171.482C470.705 160.429 503.66 156.428 531.188 159.502L531.299 158.508C503.599 155.415 470.5 159.445 435.829 170.53L436.133 171.482ZM387.42 130.348C408.741 136.376 426.256 151.478 435.528 171.218L436.433 170.793C427.04 150.794 409.296 135.494 387.692 129.386L387.42 130.348ZM388.7 110.99C388.7 117.4 388.139 123.679 387.063 129.78L388.048 129.954C389.134 123.796 389.7 117.459 389.7 110.99H388.7ZM300.009 5.12966C350.412 14.0239 388.7 58.036 388.7 110.99H389.7C389.7 57.5423 351.055 13.1219 300.183 4.14487L300.009 5.12966ZM130.2 43.4229C191.379 9.26824 254.703 -3.54824 300.002 5.12834L300.19 4.14619C254.589 -4.5884 191.023 8.32203 129.713 42.5497L130.2 43.4229ZM9.28597 234.044C-5.1211 208.24 1.05994 174.019 22.9352 139.465C44.7987 104.929 82.2771 70.1771 130.2 43.4229L129.713 42.5497C81.673 69.369 44.059 104.228 22.0903 138.93C0.133461 173.613 -6.25753 208.256 8.41285 234.531L9.28597 234.044ZM81.2239 271.557C47.8197 268.958 21.7889 256.437 9.28597 234.044L8.41285 234.531C21.1442 257.334 47.5685 269.941 81.1463 272.554L81.2239 271.557ZM77.7 296.49C77.7 288.001 79.0917 279.838 81.6589 272.216L80.7112 271.896C78.1098 279.62 76.7 287.891 76.7 296.49H77.7ZM99.867 350.137C86.1678 336.39 77.7 317.429 77.7 296.49H76.7C76.7 317.705 85.2803 336.916 99.1587 350.843L99.867 350.137ZM77.7 404.49C77.7 383.55 86.1678 364.589 99.867 350.843L99.1587 350.137C85.2803 364.063 76.7 383.275 76.7 404.49H77.7ZM153.7 480.49C111.726 480.49 77.7 446.463 77.7 404.49H76.7C76.7 447.016 111.174 481.49 153.7 481.49V480.49ZM173.324 477.932C167.064 479.6 160.486 480.49 153.7 480.49V481.49C160.574 481.49 167.238 480.589 173.581 478.898L173.324 477.932ZM220.7 520.49C196.389 520.49 176.388 502.031 173.95 478.364L172.955 478.467C175.445 502.638 195.871 521.49 220.7 521.49V520.49ZM263.897 492.042C256.7 508.775 240.068 520.49 220.7 520.49V521.49C240.481 521.49 257.467 509.524 264.815 492.437L263.897 492.042ZM280.7 493.49C275.126 493.49 269.694 492.89 264.462 491.751L264.25 492.728C269.55 493.882 275.055 494.49 280.7 494.49V493.49ZM326.227 478.35C313.538 487.858 297.777 493.49 280.7 493.49V494.49C298.001 494.49 313.97 488.783 326.827 479.15L326.227 478.35ZM401.7 540.49C364.568 540.49 333.655 513.861 327.018 478.658L326.035 478.843C332.76 514.51 364.079 541.49 401.7 541.49V540.49ZM476.71 476.788C470.832 512.914 439.486 540.49 401.7 540.49V541.49C439.984 541.49 471.742 513.55 477.697 476.949L476.71 476.788Z" fill="#FDFCFA"/>
</svg>
