<svg width="1128" height="692" viewBox="0 0 1128 692" fill="none" xmlns="http://www.w3.org/2000/svg">
<g clip-path="url(#clip0_774_44256)">
<path fill-rule="evenodd" clip-rule="evenodd" d="M1048 135C1048 154.198 1043.96 172.454 1036.69 188.964C1106.79 246.891 1142.15 312.161 1120.65 358.088C1098.78 404.801 1023.86 419.174 932.357 401.09C1037.45 496.136 1087.1 609.386 1043.75 662.817C997.121 720.287 860.563 686.79 738.736 587.998C720.651 573.332 703.908 558.053 688.658 542.476C665.889 560.345 637.189 571 606 571C561.294 571 521.701 549.107 497.358 515.458C473.08 549.673 433.147 572 388 572C362.145 572 338 564.677 317.526 551.993C299.645 571.076 274.215 583 246 583C221.674 583 199.418 574.137 182.285 559.463C163.031 577.177 137.286 588 109 588C49.3532 588 1 539.871 1 480.5C1 430.408 35.4203 388.319 82.0029 376.386C82.3324 341.323 110.859 313 146 313C172.071 313 194.501 328.588 204.477 350.953C217.017 338.03 234.571 330 254 330C268.841 330 282.588 334.685 293.841 342.658C318.042 318.755 351.298 304 388 304C404.021 304 419.385 306.811 433.626 311.968C440.178 244.077 497.391 191 567 191C567.684 191 568.368 191.005 569.05 191.015C569.953 172.985 583.103 158.18 600.35 154.75C599.014 141.366 600.846 128.766 606.186 117.36C628.055 70.6465 702.978 56.2736 794.476 74.3565C816.607 30.8245 861.82 1 914 1C988.006 1 1048 60.9938 1048 135Z" fill="#0C0B0B"/>
<path d="M1036.69 188.964L1036.23 188.762L1036.08 189.108L1036.37 189.349L1036.69 188.964ZM1120.65 358.088L1120.2 357.876L1120.2 357.876L1120.65 358.088ZM932.357 401.09L932.454 400.599L930.682 400.249L932.022 401.461L932.357 401.09ZM1043.75 662.817L1044.14 663.132L1044.14 663.132L1043.75 662.817ZM738.736 587.998L739.051 587.609L739.051 587.609L738.736 587.998ZM688.658 542.476L689.016 542.126L688.702 541.806L688.35 542.083L688.658 542.476ZM497.358 515.458L497.763 515.165L497.354 514.599L496.95 515.168L497.358 515.458ZM317.526 551.993L317.79 551.568L317.441 551.352L317.161 551.651L317.526 551.993ZM182.285 559.463L182.611 559.084L182.274 558.795L181.947 559.095L182.285 559.463ZM82.0029 376.386L82.127 376.87L82.4993 376.775L82.5029 376.391L82.0029 376.386ZM204.477 350.953L204.021 351.157L204.322 351.831L204.836 351.301L204.477 350.953ZM293.841 342.658L293.552 343.066L293.894 343.308L294.193 343.014L293.841 342.658ZM433.626 311.968L433.455 312.438L434.061 312.657L434.123 312.016L433.626 311.968ZM569.05 191.015L569.042 191.515L569.525 191.523L569.549 191.04L569.05 191.015ZM600.35 154.75L600.447 155.24L600.892 155.152L600.847 154.7L600.35 154.75ZM606.186 117.36L605.733 117.148L605.733 117.148L606.186 117.36ZM794.476 74.3565L794.379 74.847L794.75 74.9203L794.921 74.5831L794.476 74.3565ZM1037.15 189.165C1044.45 172.593 1048.5 154.269 1048.5 135H1047.5C1047.5 154.128 1043.48 172.315 1036.23 188.762L1037.15 189.165ZM1121.1 358.3C1131.94 335.144 1128.42 307.174 1113.47 277.799C1098.51 248.421 1072.09 217.57 1037.01 188.578L1036.37 189.349C1071.39 218.285 1097.7 249.033 1112.57 278.253C1127.45 307.477 1130.86 335.105 1120.2 357.876L1121.1 358.3ZM932.26 401.58C978.053 410.631 1019.73 411.567 1052.72 404.376C1085.71 397.187 1110.08 381.852 1121.1 358.3L1120.2 357.876C1109.36 381.037 1085.33 396.245 1052.51 403.399C1019.69 410.552 978.16 409.633 932.454 400.599L932.26 401.58ZM932.022 401.461C984.53 448.949 1023.16 500.966 1043.26 547.757C1063.37 594.577 1064.85 636.009 1043.36 662.502L1044.14 663.132C1065.99 636.194 1064.33 594.286 1044.18 547.362C1024.01 500.408 985.279 448.278 932.692 400.719L932.022 401.461ZM1043.36 662.502C1020.24 690.999 974.712 697.049 919.561 683.52C864.451 670.002 799.92 636.97 739.051 587.609L738.421 588.386C799.379 637.818 864.04 670.931 919.323 684.491C974.564 698.042 1020.63 692.105 1044.14 663.132L1043.36 662.502ZM739.051 587.609C720.981 572.956 704.251 557.689 689.016 542.126L688.301 542.826C703.564 558.416 720.322 573.709 738.421 588.386L739.051 587.609ZM606 571.5C637.305 571.5 666.112 560.805 688.967 542.869L688.35 542.083C665.665 559.885 637.073 570.5 606 570.5V571.5ZM496.953 515.751C521.386 549.525 561.127 571.5 606 571.5V570.5C561.461 570.5 522.016 548.69 497.763 515.165L496.953 515.751ZM388 572.5C433.316 572.5 473.398 550.089 497.766 515.747L496.95 515.168C472.762 549.257 432.979 571.5 388 571.5V572.5ZM317.263 552.418C337.814 565.15 362.049 572.5 388 572.5V571.5C362.241 571.5 338.187 564.205 317.79 551.568L317.263 552.418ZM246 583.5C274.359 583.5 299.919 571.515 317.891 552.335L317.161 551.651C299.371 570.638 274.071 582.5 246 582.5V583.5ZM181.96 559.843C199.18 574.591 221.55 583.5 246 583.5V582.5C221.798 582.5 199.656 573.682 182.611 559.084L181.96 559.843ZM109 588.5C137.416 588.5 163.281 577.626 182.624 559.831L181.947 559.095C162.782 576.727 137.156 587.5 109 587.5V588.5ZM0.5 480.5C0.5 540.149 49.0793 588.5 109 588.5V587.5C49.6272 587.5 1.5 539.592 1.5 480.5H0.5ZM81.8788 375.902C35.0818 387.889 0.5 430.173 0.5 480.5H1.5C1.5 430.644 35.7588 388.748 82.127 376.87L81.8788 375.902ZM146 312.5C110.584 312.5 81.835 341.044 81.5029 376.381L82.5029 376.391C82.8298 341.601 111.133 313.5 146 313.5V312.5ZM204.934 350.749C194.88 328.211 172.275 312.5 146 312.5V313.5C171.866 313.5 194.121 328.966 204.021 351.157L204.934 350.749ZM254 329.5C234.43 329.5 216.749 337.589 204.118 350.605L204.836 351.301C217.286 338.472 234.712 330.5 254 330.5V329.5ZM294.13 342.25C282.795 334.22 268.948 329.5 254 329.5V330.5C268.734 330.5 282.38 335.151 293.552 343.066L294.13 342.25ZM388 303.5C351.161 303.5 317.781 318.311 293.49 342.302L294.193 343.014C318.304 319.2 351.435 304.5 388 304.5V303.5ZM433.796 311.498C419.501 306.322 404.08 303.5 388 303.5V304.5C403.962 304.5 419.268 307.301 433.455 312.438L433.796 311.498ZM567 190.5C497.131 190.5 439.705 243.775 433.128 311.92L434.123 312.016C440.651 244.379 497.651 191.5 567 191.5V190.5ZM569.057 190.515C568.373 190.505 567.687 190.5 567 190.5V191.5C567.682 191.5 568.363 191.505 569.042 191.515L569.057 190.515ZM600.252 154.26C582.784 157.734 569.466 172.727 568.55 190.99L569.549 191.04C570.441 173.242 583.422 158.627 600.447 155.24L600.252 154.26ZM605.733 117.148C600.35 128.646 598.508 141.338 599.852 154.8L600.847 154.7C599.519 141.394 601.342 128.886 606.639 117.572L605.733 117.148ZM794.573 73.866C748.78 64.8159 707.102 63.88 674.114 71.071C641.13 78.2609 616.759 93.5955 605.733 117.148L606.639 117.572C617.482 94.4106 641.507 79.2022 674.327 72.0481C707.141 64.895 748.674 65.8142 794.379 74.847L794.573 73.866ZM914 0.5C861.625 0.5 816.243 30.4367 794.03 74.1299L794.921 74.5831C816.97 31.2123 862.016 1.5 914 1.5V0.5ZM1048.5 135C1048.5 60.7177 988.282 0.5 914 0.5V1.5C987.73 1.5 1047.5 61.27 1047.5 135H1048.5Z" fill="#FDFCFA"/>
</g>
<defs>
<clipPath id="clip0_774_44256">
<rect width="1128" height="692" fill="white"/>
</clipPath>
</defs>
</svg>
