<svg width="1038" height="488" viewBox="0 0 1038 488" fill="none" xmlns="http://www.w3.org/2000/svg">
<g clip-path="url(#clip0_774_44228)">
<path fill-rule="evenodd" clip-rule="evenodd" d="M739.743 174.298C738.719 174.133 737.698 173.988 736.678 173.863C720.616 113.725 634.375 77.1919 537.812 91.4627C460.335 102.913 398.679 143.749 378.376 191.579C354.966 189.643 333.192 191.586 315.299 196.662C304.876 188.147 292.138 182.179 277.895 179.879C234.747 172.911 194.119 202.241 187.151 245.389C186.93 246.757 186.746 248.123 186.597 249.485C171.302 244.336 153.816 240.006 135.064 236.978C70.3415 226.526 15.0492 235.542 11.5652 257.116C8.08123 278.69 57.7248 304.653 122.447 315.105C157.039 320.691 188.937 320.716 211.671 316.235C222.7 326.407 236.74 333.561 252.662 336.133C270.25 338.973 287.42 335.782 302.062 328.082C307.657 338.718 318.011 346.686 330.789 348.749C338.905 350.06 346.843 348.802 353.774 345.574C356.991 369.41 375.429 389.36 400.402 393.393C428.793 397.978 455.643 380.377 463.273 353.354C495.521 369.009 539.111 382.391 587.958 390.279C694.031 407.409 784.727 392.146 790.534 356.19C790.855 354.204 790.91 352.197 790.71 350.174C802.388 350.439 814.802 350.058 827.635 348.955C856.611 346.464 882.855 340.709 902.925 333.176C958.893 340.331 1007.7 320.566 1018.17 283.464C1030.35 240.293 986.016 189.996 919.138 171.124C861.976 154.992 806.849 167.04 784.431 197.838C772.921 185.737 757.502 177.166 739.743 174.298Z" fill="#0C0B0B"/>
<path d="M736.678 173.863L736.195 173.992L736.282 174.319L736.617 174.36L736.678 173.863ZM537.812 91.4627L537.739 90.9681L537.812 91.4627ZM378.376 191.579L378.335 192.077L378.695 192.107L378.837 191.774L378.376 191.579ZM315.299 196.662L314.983 197.05L315.185 197.215L315.436 197.143L315.299 196.662ZM186.597 249.485L186.438 249.959L187.027 250.157L187.094 249.539L186.597 249.485ZM211.671 316.235L212.01 315.867L211.824 315.695L211.575 315.744L211.671 316.235ZM302.062 328.082L302.504 327.849L302.271 327.407L301.829 327.64L302.062 328.082ZM353.774 345.574L354.27 345.507L354.179 344.834L353.563 345.121L353.774 345.574ZM463.273 353.354L463.491 352.905L462.954 352.644L462.792 353.219L463.273 353.354ZM790.71 350.174L790.721 349.674L790.157 349.661L790.212 350.223L790.71 350.174ZM827.635 348.955L827.592 348.457L827.592 348.457L827.635 348.955ZM902.925 333.176L902.989 332.68L902.866 332.664L902.75 332.707L902.925 333.176ZM1018.17 283.464L1018.65 283.6L1018.65 283.6L1018.17 283.464ZM919.138 171.124L919.003 171.605L919.138 171.124ZM784.431 197.838L784.069 198.183L784.483 198.617L784.836 198.132L784.431 197.838ZM736.617 174.36C737.631 174.484 738.646 174.628 739.663 174.792L739.822 173.805C738.793 173.638 737.765 173.493 736.738 173.367L736.617 174.36ZM537.885 91.9574C586.089 84.8335 631.696 90.3938 667.24 105.221C702.791 120.051 728.217 144.123 736.195 173.992L737.161 173.734C729.077 143.465 703.351 119.201 667.625 104.298C631.893 89.3921 586.098 83.8212 537.739 90.9681L537.885 91.9574ZM378.837 191.774C399.046 144.163 460.507 103.393 537.885 91.9574L537.739 90.9681C460.163 102.433 398.311 143.334 377.916 191.383L378.837 191.774ZM315.436 197.143C333.261 192.086 354.974 190.145 378.335 192.077L378.418 191.08C354.957 189.14 333.122 191.086 315.163 196.181L315.436 197.143ZM277.815 180.372C291.969 182.658 304.626 188.588 314.983 197.05L315.615 196.275C305.126 187.705 292.307 181.7 277.975 179.385L277.815 180.372ZM187.645 245.469C194.569 202.593 234.94 173.448 277.815 180.372L277.975 179.385C234.554 172.373 193.67 201.888 186.658 245.309L187.645 245.469ZM187.094 249.539C187.242 248.185 187.425 246.828 187.645 245.469L186.658 245.309C186.436 246.686 186.25 248.06 186.1 249.43L187.094 249.539ZM134.984 237.471C153.711 240.496 171.171 244.82 186.438 249.959L186.757 249.011C171.434 243.853 153.921 239.517 135.144 236.484L134.984 237.471ZM12.0588 257.196C12.895 252.018 16.8516 247.516 23.473 243.835C30.0882 240.158 39.2865 237.348 50.4306 235.531C72.7135 231.897 102.661 232.252 134.984 237.471L135.144 236.484C102.744 231.252 72.6846 230.889 50.2697 234.544C39.065 236.371 29.7418 239.207 22.9872 242.961C16.2389 246.712 11.9775 251.427 11.0716 257.037L12.0588 257.196ZM122.527 314.611C90.204 309.391 61.6669 300.301 41.6605 289.838C31.6549 284.606 23.8088 279.043 18.6873 273.47C13.5609 267.893 11.2227 262.373 12.0588 257.196L11.0716 257.037C10.1657 262.646 12.7265 268.463 17.951 274.147C23.1804 279.837 31.1371 285.463 41.1971 290.724C61.3221 301.249 89.968 310.366 122.367 315.598L122.527 314.611ZM211.575 315.744C188.915 320.211 157.079 320.191 122.527 314.611L122.367 315.598C156.998 321.191 188.959 321.221 211.768 316.726L211.575 315.744ZM252.741 335.639C236.92 333.084 222.969 325.975 212.01 315.867L211.332 316.603C222.431 326.84 236.561 334.039 252.582 336.626L252.741 335.639ZM301.829 327.64C287.28 335.291 270.219 338.461 252.741 335.639L252.582 336.626C270.281 339.484 287.56 336.273 302.294 328.525L301.829 327.64ZM330.869 348.256C318.253 346.218 308.029 338.352 302.504 327.849L301.619 328.315C307.284 339.084 317.77 347.153 330.709 349.243L330.869 348.256ZM353.563 345.121C346.72 348.308 338.883 349.55 330.869 348.256L330.709 349.243C338.928 350.57 346.967 349.296 353.985 346.027L353.563 345.121ZM400.482 392.899C375.733 388.903 357.458 369.131 354.27 345.507L353.279 345.641C356.524 369.689 375.126 389.818 400.323 393.887L400.482 392.899ZM462.792 353.219C455.23 380 428.619 397.443 400.482 392.899L400.323 393.887C428.967 398.512 456.055 380.755 463.754 353.49L462.792 353.219ZM588.038 389.786C539.228 381.903 495.687 368.534 463.491 352.905L463.054 353.804C495.356 369.484 538.994 382.879 587.879 390.773L588.038 389.786ZM790.041 356.11C788.623 364.887 782.014 372.476 771.102 378.659C760.195 384.839 745.062 389.57 726.763 392.649C690.171 398.807 641.036 398.344 588.038 389.786L587.879 390.773C640.954 399.344 690.203 399.815 726.929 393.635C745.289 390.545 760.548 385.789 771.595 379.529C782.636 373.273 789.542 365.471 791.028 356.269L790.041 356.11ZM790.212 350.223C790.408 352.205 790.354 354.168 790.041 356.11L791.028 356.269C791.356 354.24 791.412 352.189 791.207 350.125L790.212 350.223ZM827.592 348.457C814.777 349.559 802.381 349.939 790.721 349.674L790.699 350.674C802.396 350.939 814.828 350.558 827.678 349.453L827.592 348.457ZM902.75 332.707C882.73 340.222 856.532 345.969 827.592 348.457L827.678 349.453C856.69 346.959 882.98 341.196 903.101 333.644L902.75 332.707ZM1017.69 283.329C1012.51 301.693 997.826 315.812 977.415 324.456C957.005 333.1 930.902 336.248 902.989 332.68L902.862 333.671C930.916 337.258 957.202 334.102 977.805 325.377C998.408 316.652 1013.37 302.337 1018.65 283.6L1017.69 283.329ZM919.003 171.605C952.363 181.019 980.079 198.265 997.928 218.513C1015.78 238.765 1023.72 261.961 1017.69 283.329L1018.65 283.6C1024.81 261.796 1016.67 238.259 998.678 217.851C980.684 197.439 952.792 180.101 919.274 170.642L919.003 171.605ZM784.836 198.132C795.949 182.864 815.206 172.201 838.856 167.372C862.499 162.544 890.49 163.559 919.003 171.605L919.274 170.642C890.624 162.557 862.471 161.53 838.655 166.392C814.847 171.254 795.332 182.013 784.027 197.544L784.836 198.132ZM739.663 174.792C757.311 177.642 772.632 186.158 784.069 198.183L784.794 197.493C773.211 185.315 757.694 176.691 739.822 173.805L739.663 174.792Z" fill="#FDFCFA"/>
</g>
<defs>
<clipPath id="clip0_774_44228">
<rect width="1038" height="488" fill="white"/>
</clipPath>
</defs>
</svg>
