<?xml version="1.0" encoding="UTF-8" standalone="no"?>
<svg
   width="643"
   height="292"
   viewBox="0 0 643 292"
   fill="none"
   version="1.1"
   id="svg2"
   sodipodi:docname="641d6afca2bcc57ba21da428_cloud_3.svg"
   inkscape:version="1.4 (e7c3feb1, 2024-10-09)"
   xmlns:inkscape="http://www.inkscape.org/namespaces/inkscape"
   xmlns:sodipodi="http://sodipodi.sourceforge.net/DTD/sodipodi-0.dtd"
   xmlns:xlink="http://www.w3.org/1999/xlink"
   xmlns="http://www.w3.org/2000/svg"
   xmlns:svg="http://www.w3.org/2000/svg">
  <sodipodi:namedview
     id="namedview2"
     pagecolor="#ffffff"
     bordercolor="#000000"
     borderopacity="0.25"
     inkscape:showpageshadow="2"
     inkscape:pageopacity="0.0"
     inkscape:pagecheckerboard="0"
     inkscape:deskcolor="#d1d1d1"
     inkscape:zoom="1.461472"
     inkscape:cx="238.45822"
     inkscape:cy="204.93037"
     inkscape:window-width="1728"
     inkscape:window-height="990"
     inkscape:window-x="2030"
     inkscape:window-y="441"
     inkscape:window-maximized="0"
     inkscape:current-layer="svg2" />
  <g
     clip-path="url(#clip0_762_41910)"
     id="g2"
     style="stroke:url(#linearGradient2)">
    <path
       fill-rule="evenodd"
       clip-rule="evenodd"
       d="M498.81 80.1631C491.855 73.5102 483.044 68.6677 473.029 66.541C442.997 20.8424 387.934 -5.819 329.875 2.7708C288.26 8.92777 253.351 31.9758 231.191 63.8494C229.96 63.5914 228.718 63.3608 227.464 63.1583C201.019 58.8877 175.505 68.0787 157.899 85.6905C153.382 83.5255 148.483 81.9639 143.287 81.1249C120.738 77.4835 99.2066 88.5157 88.4204 107.195C76.6883 109.171 65.9541 114.541 57.5121 122.394C53.2255 119.41 48.1992 117.311 42.6707 116.418C23.3645 113.3 5.24311 126.072 2.19532 144.945C-0.852471 163.818 12.3275 181.645 31.6336 184.763C35.41 185.373 39.1411 185.375 42.7229 184.842C49.982 204.197 67.4196 219.309 89.6555 222.899C115.682 227.103 140.438 214.255 152.059 192.718C153.518 194.54 155.056 196.299 156.67 197.99C157.847 209.767 166.791 219.75 179.022 221.725C184.156 222.554 189.184 221.862 193.647 219.98C193.984 220.071 194.322 220.16 194.66 220.247C197.085 236.068 209.434 249.223 226.078 251.911C234.086 253.204 241.914 251.885 248.691 248.579C280.072 279.176 325.072 295.291 372.033 288.343C412.365 282.376 446.398 260.543 468.632 230.187C480.494 244.69 499.31 253.291 519.674 251.538C552.12 248.744 576.212 220.724 573.485 188.953C573.252 186.232 572.829 183.571 572.231 180.982C579.226 177.322 585.452 172.382 590.502 166.375C593.591 167.872 596.953 168.952 600.524 169.529C619.83 172.646 637.952 159.874 641 141.001C644.047 122.128 630.867 104.301 611.561 101.184C606.558 100.376 601.633 100.635 597.031 101.791C589.089 86.7258 574.797 74.6227 556.545 69.4706C535.548 63.5438 514.211 68.1991 498.81 80.1631Z"
       fill="#0C0B0B"
       id="path1"
       style="stroke:url(#linearGradient2)" />
    <path
       d="M473.029 66.541L472.612 66.8156L472.724 66.9874L472.926 67.0301L473.029 66.541ZM498.81 80.1631L498.464 80.5244L498.776 80.8225L499.117 80.5579L498.81 80.1631ZM329.875 2.7708L329.802 2.27618L329.802 2.27618L329.875 2.7708ZM231.191 63.8494L231.088 64.3387L231.412 64.4067L231.601 64.1348L231.191 63.8494ZM157.899 85.6905L157.682 86.1413L158.002 86.2944L158.252 86.044L157.899 85.6905ZM88.4204 107.195L88.5035 107.688L88.7357 107.648L88.8534 107.445L88.4204 107.195ZM57.5121 122.394L57.2264 122.805L57.5574 123.035L57.8526 122.76L57.5121 122.394ZM42.7229 184.842L43.1911 184.666L43.0492 184.288L42.6494 184.347L42.7229 184.842ZM152.059 192.718L152.449 192.405L151.977 191.816L151.619 192.48L152.059 192.718ZM156.67 197.99L157.168 197.94L157.151 197.769L157.032 197.645L156.67 197.99ZM193.647 219.98L193.778 219.497L193.612 219.453L193.453 219.519L193.647 219.98ZM194.66 220.247L195.155 220.171L195.105 219.844L194.784 219.762L194.66 220.247ZM248.691 248.579L249.04 248.221L248.788 247.976L248.472 248.13L248.691 248.579ZM372.033 288.343L371.96 287.848L371.96 287.848L372.033 288.343ZM468.632 230.187L469.019 229.87L468.61 229.37L468.228 229.891L468.632 230.187ZM519.674 251.538L519.631 251.04L519.631 251.04L519.674 251.538ZM573.485 188.953L572.987 188.996L573.485 188.953ZM572.231 180.982L571.999 180.539L571.657 180.718L571.744 181.095L572.231 180.982ZM590.502 166.375L590.72 165.925L590.37 165.755L590.12 166.053L590.502 166.375ZM597.031 101.791L596.588 102.024L596.771 102.372L597.152 102.276L597.031 101.791ZM556.545 69.4706L556.409 69.9518L556.409 69.9518L556.545 69.4706ZM472.926 67.0301C482.846 69.1369 491.575 73.9338 498.464 80.5244L499.156 79.8017C492.136 73.0867 483.241 68.1985 473.133 66.0519L472.926 67.0301ZM329.948 3.26542C387.809 -5.29512 442.683 21.2752 472.612 66.8156L473.447 66.2664C443.311 20.4097 388.059 -6.34288 329.802 2.27618L329.948 3.26542ZM231.601 64.1348C253.686 32.3703 288.475 9.40146 329.948 3.26542L329.802 2.27618C288.045 8.45407 253.016 31.5812 230.78 63.5639L231.601 64.1348ZM227.384 63.6519C228.631 63.8532 229.865 64.0824 231.088 64.3387L231.293 63.36C230.055 63.1005 228.805 62.8685 227.544 62.6647L227.384 63.6519ZM158.252 86.044C175.75 68.5408 201.104 59.408 227.384 63.6519L227.544 62.6647C200.933 58.3674 175.26 67.6166 157.545 85.337L158.252 86.044ZM143.207 81.6185C148.355 82.4498 153.208 83.9968 157.682 86.1413L158.115 85.2396C153.555 83.0541 148.61 81.478 143.366 80.6313L143.207 81.6185ZM88.8534 107.445C99.5394 88.9394 120.87 78.0113 143.207 81.6185L143.366 80.6313C120.606 76.9557 98.8739 88.0919 87.9874 106.945L88.8534 107.445ZM57.8526 122.76C66.2234 114.974 76.8682 109.648 88.5035 107.688L88.3374 106.701C76.5083 108.694 65.6847 114.109 57.1715 122.028L57.8526 122.76ZM42.591 116.912C48.0442 117.792 53.0002 119.862 57.2264 122.805L57.7978 121.984C53.4507 118.957 48.3543 116.829 42.7504 115.924L42.591 116.912ZM2.68892 145.025C5.691 126.435 23.5468 113.836 42.591 116.912L42.7504 115.924C23.1823 112.764 4.79523 125.71 1.70171 144.866L2.68892 145.025ZM31.7133 184.269C12.6692 181.194 -0.313147 163.615 2.68892 145.025L1.70171 144.866C-1.3918 164.022 11.9858 182.097 31.5539 185.257L31.7133 184.269ZM42.6494 184.347C39.1179 184.873 35.4385 184.871 31.7133 184.269L31.5539 185.257C35.3816 185.875 39.1644 185.877 42.7965 185.336L42.6494 184.347ZM89.7352 222.406C67.6798 218.844 50.3883 203.856 43.1911 184.666L42.2548 185.017C49.5756 204.537 67.1594 219.773 89.5758 223.393L89.7352 222.406ZM151.619 192.48C140.098 213.831 115.551 226.575 89.7352 222.406L89.5758 223.393C115.813 227.63 140.777 214.679 152.499 192.955L151.619 192.48ZM157.032 197.645C155.428 195.964 153.899 194.216 152.449 192.405L151.669 193.03C153.137 194.863 154.685 196.634 156.309 198.335L157.032 197.645ZM179.102 221.231C167.101 219.293 158.322 209.498 157.168 197.94L156.173 198.04C157.371 210.037 166.482 220.206 178.943 222.218L179.102 221.231ZM193.453 219.519C189.074 221.366 184.14 222.045 179.102 221.231L178.943 222.218C184.171 223.063 189.294 222.358 193.842 220.441L193.453 219.519ZM194.784 219.762C194.448 219.676 194.112 219.588 193.778 219.497L193.517 220.463C193.856 220.554 194.196 220.644 194.536 220.731L194.784 219.762ZM226.158 251.417C209.734 248.765 197.547 235.784 195.155 220.171L194.166 220.322C196.623 236.352 209.133 249.681 225.998 252.405L226.158 251.417ZM248.472 248.13C241.784 251.391 234.061 252.694 226.158 251.417L225.998 252.405C234.112 253.715 242.043 252.378 248.91 249.029L248.472 248.13ZM371.96 287.848C325.159 294.773 280.313 278.713 249.04 248.221L248.342 248.937C279.83 279.639 324.986 295.809 372.106 288.838L371.96 287.848ZM468.228 229.891C446.071 260.144 412.155 281.902 371.96 287.848L372.106 288.838C412.575 282.85 446.726 260.942 469.035 230.482L468.228 229.891ZM519.631 251.04C499.435 252.778 480.78 244.249 469.019 229.87L468.245 230.503C480.209 245.131 499.184 253.804 519.717 252.036L519.631 251.04ZM572.987 188.996C575.69 220.482 551.812 248.269 519.631 251.04L519.717 252.036C552.428 249.22 576.735 220.967 573.984 188.911L572.987 188.996ZM571.744 181.095C572.337 183.661 572.756 186.298 572.987 188.996L573.984 188.911C573.748 186.165 573.321 183.481 572.718 180.87L571.744 181.095ZM590.12 166.053C585.113 172.008 578.938 176.908 571.999 180.539L572.463 181.425C579.513 177.736 585.791 172.755 590.885 166.696L590.12 166.053ZM600.604 169.035C597.081 168.466 593.765 167.401 590.72 165.925L590.284 166.824C593.416 168.343 596.824 169.438 600.445 170.022L600.604 169.035ZM640.506 140.922C637.504 159.511 619.648 172.11 600.604 169.035L600.445 170.022C620.013 173.182 638.4 160.237 641.493 141.081L640.506 140.922ZM611.482 101.677C630.526 104.753 643.508 122.332 640.506 140.922L641.493 141.081C644.587 121.925 631.209 103.85 611.641 100.69L611.482 101.677ZM597.152 102.276C601.69 101.136 606.546 100.88 611.482 101.677L611.641 100.69C606.569 99.871 601.576 100.134 596.909 101.306L597.152 102.276ZM556.409 69.9518C574.529 75.0664 588.711 87.0794 596.588 102.024L597.473 101.558C589.468 86.3721 575.066 74.1789 556.681 68.9894L556.409 69.9518ZM499.117 80.5579C514.391 68.6918 535.564 64.0679 556.409 69.9518L556.681 68.9894C535.531 63.0196 514.03 67.7064 498.503 79.7682L499.117 80.5579Z"
       fill="#FDFCFA"
       id="path2"
       style="stroke:url(#linearGradient2)" />
  </g>
  <defs
     id="defs2">
    <linearGradient
       id="swatch2"
       inkscape:swatch="solid">
      <stop
         style="stop-color:#f1f1f1;stop-opacity:1;"
         offset="0"
         id="stop2" />
    </linearGradient>
    <clipPath
       id="clip0_762_41910">
      <rect
         width="643"
         height="292"
         fill="white"
         id="rect2" />
    </clipPath>
    <linearGradient
       inkscape:collect="always"
       xlink:href="#swatch2"
       id="linearGradient2"
       x1="1.2570445"
       y1="145.55699"
       x2="641.93778"
       y2="145.55699"
       gradientUnits="userSpaceOnUse" />
  </defs>
  <path
     style="fill:#ffffff;stroke-width:0.684242"
     d="m 329.64328,287.01939 c -9.95725,-1.50701 -22.12373,-4.65944 -30.56636,-7.91999 -16.89213,-6.52375 -34.599,-17.5515 -46.41407,-28.90646 l -3.24353,-3.11722 -4.28313,1.58671 c -5.94623,2.20283 -16.50428,2.7342 -22.08597,1.11156 -13.15998,-3.82571 -23.3454,-14.1405 -26.37619,-26.71121 -0.45368,-1.88167 -1.06935,-3.69217 -1.36817,-4.02334 -0.30842,-0.34181 -2.47717,-0.0787 -5.01634,0.60866 -9.45908,2.56046 -18.9383,-0.2329 -25.62752,-7.55197 -3.2574,-3.56412 -6.26006,-9.60901 -6.26006,-12.60263 0,-1.60321 -6.14558,-9.24612 -6.81362,-8.47372 -0.27013,0.31234 -1.93302,2.77421 -3.6953,5.47084 -3.69056,5.64724 -12.19998,13.90405 -17.74733,17.22049 -5.26805,3.14946 -12.29995,5.91615 -18.59794,7.31732 -7.14339,1.58925 -21.055143,1.10017 -28.28991,-0.99456 -16.717909,-4.84045 -31.664671,-17.70984 -37.821882,-32.56522 l -1.554192,-3.74977 h -5.546385 c -10.125188,0 -17.727598,-2.98321 -24.724497,-9.70198 -4.6911208,-4.50465 -7.9043926,-9.92064 -9.4840911,-15.98551 -3.62062842,-13.90053 3.4242869,-29.46905 16.4650801,-36.38609 10.813308,-5.73555 22.278812,-5.68869 32.884246,0.13438 l 4.210722,2.31196 2.631695,-2.25124 c 6.721928,-5.75015 16.430004,-10.60174 25.393104,-12.69015 3.252597,-0.75786 3.839341,-1.19601 6.038645,-4.50941 4.151191,-6.254027 12.326775,-13.342271 19.549705,-16.949634 7.42912,-3.710328 12.46117,-5.137512 20.07441,-5.693479 7.90879,-0.577555 17.71808,1.263438 25.75723,4.834085 0.81044,0.359966 2.46548,-0.70765 5.92537,-3.822277 17.52996,-15.780631 43.07571,-22.619521 67.19032,-17.987615 1.4895,0.286102 2.24124,-0.396166 5.81605,-5.278584 5.78241,-7.897517 19.88786,-21.913517 28.51318,-28.332357 17.27706,-12.857342 38.33348,-22.1140392 59.66918,-26.2314046 46.99035,-9.0682004 96.02775,6.1744916 129.80716,40.3490046 5.31726,5.37945 14.59304,16.677698 17.4922,21.30614 0.31991,0.51073 2.12119,1.31792 4.00286,1.793754 5.15739,1.304197 13.91216,5.718536 18.05166,9.102022 2.02542,1.655509 4.04754,3.280863 4.49359,3.611893 0.5249,0.389538 2.00175,-0.246629 4.1862,-1.80323 5.40747,-3.85328 13.04272,-7.360374 20.09132,-9.228545 9.48729,-2.51452 22.17265,-2.48969 31.81618,0.06228 16.53722,4.376246 31.54584,15.174988 39.29229,28.270915 l 2.49529,4.218462 7.19851,-0.37829 c 11.2139,-0.58931 18.71319,2.12773 26.49348,9.59874 9.57563,9.19499 12.77497,22.35193 8.3518,34.34584 -5.92205,16.05831 -22.83964,25.13106 -39.52574,21.19731 -2.3784,-0.56071 -5.13848,-1.44603 -6.1335,-1.96737 -1.75924,-0.92176 -1.9638,-0.80319 -7.41771,4.29953 -3.08472,2.88609 -7.4912,6.31621 -9.79218,7.62248 l -4.1836,2.37504 0.53023,4.10545 c 1.00138,7.75317 0.52799,18.05451 -1.09786,23.89048 -4.55213,16.33985 -15.46074,29.27408 -30.87337,36.60624 -9.24037,4.39587 -13.11617,5.19048 -25.31694,5.19048 -9.2116,0 -11.28033,-0.21096 -15.73756,-1.60484 -10.33998,-3.23358 -18.80025,-8.42467 -26.07164,-15.99716 l -3.83379,-3.99254 -5.16227,6.3497 c -24.17768,29.73912 -58.25514,48.43128 -96.97299,53.19162 -9.04129,1.11162 -27.17828,0.77854 -36.78607,-0.67559 z"
     id="path3" />
</svg>
